<?xml version="1.0" encoding="UTF-8"?>
<svg xmlns="http://www.w3.org/2000/svg" width="512pt" height="512pt" viewBox="0 0 512 512" preserveAspectRatio="xMidYMid meet">
	<g fill="currentColor">
<path d="M0 0 C1.36260802 -0.01064158 1.36260802 -0.01064158 2.75274348 -0.02149814 C5.80383109 -0.03913298 8.85365401 -0.02094496 11.90472412 -0.00291443 C14.0893563 -0.00805128 16.27398434 -0.01533078 18.45860291 -0.02459717 C24.39895167 -0.04315337 30.33885309 -0.03014395 36.27918339 -0.01050687 C42.4934601 0.00585429 48.70770791 -0.00293012 54.92199707 -0.00802612 C65.36308621 -0.01255125 75.80400787 0.00324116 86.24505615 0.03126526 C96.97918135 0.0600755 107.71305135 0.06719995 118.44720459 0.05177307 C131.3871997 0.03325947 144.32702738 0.03496702 157.26702118 0.0539875 C162.206247 0.06085623 167.14537787 0.05982719 172.08460236 0.05244255 C177.90576564 0.04477186 183.72656198 0.05693205 189.54766273 0.08429146 C191.68254571 0.09116933 193.81746299 0.0912797 195.95234489 0.08407593 C198.87057415 0.07536493 201.7876754 0.09136599 204.70581055 0.11352539 C205.96828594 0.10116424 205.96828594 0.10116424 207.25626588 0.08855337 C214.57892895 0.19092299 220.18670646 2.4408067 225.35687256 7.69068909 C232.40678052 16.72515736 234.16977569 30.04852528 236.93890381 40.95240784 C237.40813848 42.78238733 237.87791534 44.61222788 238.34819031 46.44194031 C239.35315562 50.35576883 240.354908 54.27039939 241.35406494 58.18571472 C243.74679754 67.56088225 246.15605192 76.93181014 248.56392288 86.30309868 C249.39738234 89.54746601 250.23020617 92.79199612 251.0630188 96.03652954 C257.64857846 121.67991716 264.3609116 147.29007431 271.07435703 172.90021515 C272.00750131 176.46050606 272.94006635 180.02094858 273.87259102 183.58140182 C274.50092416 185.97904941 275.13036169 188.37640483 275.75993347 190.77372742 C276.70165814 194.36151731 277.63302638 197.95190324 278.56182861 201.54305649 C279.11703701 203.66707446 279.68808689 205.78641725 280.26068115 207.9058075 C282.22989558 215.30250168 283.71587976 222.31988449 283.63812256 230.01881409 C283.64194946 230.89672607 283.64577637 231.77463806 283.64971924 232.67915344 C283.65239746 234.49697547 283.64532995 236.31483885 283.62835693 238.13258362 C283.60656787 240.91712743 283.62845626 243.69918328 283.65374756 246.48365784 C283.65110963 248.26621558 283.6459958 250.04877178 283.63812256 251.83131409 C283.65026794 253.07029449 283.65026794 253.07029449 283.66265869 254.33430481 C283.60743055 257.7022509 283.51313046 260.05622736 281.53168106 262.84586716 C278.3175217 265.20839051 275.63016573 265.17413302 271.7923584 265.10920715 C271.05390127 265.11262485 270.31544415 265.11604255 269.55460954 265.11956382 C267.07912313 265.12615473 264.60472006 265.10414782 262.1293335 265.08229065 C260.35536729 265.08116243 258.58139921 265.08179554 256.80743408 265.08406067 C251.98947957 265.08520974 247.17192226 265.06166925 242.35406017 265.03376484 C237.31988214 265.00878328 232.2856953 265.00641175 227.25146484 265.00166321 C217.7175317 264.98922389 208.18378172 264.9563893 198.64992929 264.91626525 C187.79638085 264.87157732 176.94282373 264.84956799 166.08920622 264.82948351 C143.76165662 264.78765754 121.43428257 264.71648245 99.10687256 264.62818909 C99.10687256 272.54818909 99.10687256 280.46818909 99.10687256 288.62818909 C102.52546631 288.58178284 105.94406006 288.53537659 109.46624756 288.48756409 C112.77580277 288.45637261 116.08534162 288.4320824 119.3949585 288.40846252 C121.69581425 288.38834221 123.99661885 288.36104275 126.29730225 288.32643127 C129.60374573 288.27793297 132.90951341 288.2552243 136.21624756 288.23756409 C137.24554382 288.21691895 138.27484009 288.1962738 139.33532715 288.17500305 C146.28221655 288.17281836 146.28221655 288.17281836 149.7543335 290.09010315 C151.78757328 293.90554734 151.67913881 297.36413163 151.63812256 301.62818909 C151.64194946 302.5008844 151.64577637 303.37357971 151.64971924 304.27272034 C151.65243746 306.11518001 151.6450825 307.95767833 151.62835693 309.80006409 C151.60694504 312.61864842 151.62816057 315.43468393 151.65374756 318.25318909 C151.65110427 320.04486137 151.64597925 321.83653208 151.63812256 323.62818909 C151.64621948 324.4699469 151.65431641 325.31170471 151.66265869 326.17897034 C151.64374573 327.36039612 151.64374573 327.36039612 151.62445068 328.56568909 C151.62126831 329.25533752 151.61808594 329.94498596 151.61480713 330.65553284 C150.85020196 333.625016 149.50117736 334.73549136 147.10687256 336.62818909 C143.87719727 337.13155365 143.87719727 337.13155365 139.97113037 337.13612366 C138.89217939 337.1454836 138.89217939 337.1454836 137.79143143 337.15503263 C135.38062025 337.17099053 132.97081627 337.15834826 130.55999756 337.14576721 C128.83192352 337.15118712 127.1038541 337.15830904 125.37579346 337.16700745 C120.68158157 337.18525946 115.98772092 337.17816556 111.29350281 337.1654911 C106.38395227 337.15537315 101.47443207 337.16475343 96.56488037 337.17103577 C88.31970818 337.17831569 80.07467925 337.16871543 71.82952881 337.14967346 C62.29319911 337.12790406 52.75721146 337.13495519 43.22089005 337.15697908 C35.03734532 337.17512327 26.85390365 337.17769621 18.67034531 337.16722441 C13.78084454 337.16098407 8.89150463 337.16016867 4.00201416 337.17337036 C-0.59455907 337.18491397 -5.19069073 337.17693052 -9.78721619 337.15379333 C-11.47549201 337.14849825 -13.1638049 337.15003367 -14.85206604 337.15884399 C-17.154343 337.16975209 -19.4551992 337.15609522 -21.75738525 337.13612366 C-23.04638733 337.13461555 -24.3353894 337.13310745 -25.66345215 337.13155365 C-29.43651306 336.54349913 -30.61582719 335.6318404 -32.89312744 332.62818909 C-33.40106201 330.65553284 -33.40106201 330.65553284 -33.41070557 328.56568909 C-33.42331421 327.7780719 -33.43592285 326.99045471 -33.44891357 326.17897034 C-33.44081665 325.33721252 -33.43271973 324.49545471 -33.42437744 323.62818909 C-33.4301178 322.31914612 -33.4301178 322.31914612 -33.43597412 320.98365784 C-33.43869234 319.14119817 -33.43133739 317.29869985 -33.41461182 315.45631409 C-33.39319992 312.63772975 -33.41441545 309.82169424 -33.44000244 307.00318909 C-33.43735915 305.2115168 -33.43223414 303.4198461 -33.42437744 301.62818909 C-33.43247437 300.78643127 -33.44057129 299.94467346 -33.44891357 299.07740784 C-33.39275901 295.56963104 -33.20547558 293.21432108 -31.54058838 290.09010315 C-27.20864102 287.69802451 -22.86255467 288.14008344 -18.00250244 288.23756409 C-16.94275208 288.24322388 -15.88300171 288.24888367 -14.7911377 288.25471497 C-11.40800716 288.27709668 -8.0259376 288.3272981 -4.64312744 288.37818909 C-2.34887191 288.39825169 -0.05459977 288.41650287 2.23968506 288.43287659 C7.86281798 288.47356496 13.48365847 288.55185586 19.10687256 288.62818909 C19.10687256 280.70818909 19.10687256 272.78818909 19.10687256 264.62818909 C15.88795258 264.64151276 15.88795258 264.64151276 12.60400391 264.65510559 C-7.58527011 264.7367676 -27.7745224 264.7963365 -47.96392441 264.83543777 C-58.34436303 264.85607554 -68.72468058 264.88421935 -79.1050415 264.9299469 C-88.15106353 264.96977747 -97.19699789 264.99561306 -106.24310517 265.00454307 C-111.03434999 265.00976423 -115.82534396 265.02206101 -120.61650848 265.05110931 C-125.12431543 265.07821874 -129.63176772 265.08664318 -134.13964844 265.08061981 C-135.79569678 265.08172206 -137.45175673 265.08970266 -139.10773468 265.10501099 C-141.36636935 265.12486977 -143.62365941 265.12014447 -145.88232422 265.10920715 C-147.14702419 265.11289433 -148.41172417 265.1165815 -149.71474838 265.1203804 C-153.48307867 264.53683155 -154.66231009 263.6734645 -156.89312744 260.62818909 C-157.38921342 257.93297656 -157.62988773 255.64738285 -157.69024658 252.93873596 C-157.71681021 252.16461868 -157.74337383 251.3905014 -157.77074242 250.59292603 C-157.83789751 248.01010558 -157.85936423 245.43060583 -157.86578369 242.84693909 C-157.86995867 241.9462822 -157.87413364 241.04562531 -157.87843513 240.11767578 C-157.8256913 217.59635103 -152.24662636 196.78816086 -146.1982193 175.24346924 C-144.72250086 169.94457631 -143.30543498 164.63002631 -141.88287354 159.31666565 C-139.63017164 150.9253471 -137.34841036 142.54255625 -135.04400635 134.16529846 C-132.27189597 124.07662498 -129.60295663 113.96444908 -126.99859619 103.83131409 C-126.64365197 102.45417181 -126.28860772 101.07705532 -125.93345642 99.69996643 C-124.65517442 94.7408775 -123.37872132 89.78131857 -122.10403442 84.82130432 C-121.2736048 81.60370951 -120.43275106 78.38903958 -119.58843994 75.17506409 C-119.35517502 74.26218628 -119.1219101 73.34930847 -118.88157654 72.4087677 C-117.73119739 68.06700991 -116.60967707 64.29457488 -113.89312744 60.62818909 C-110.75441557 59.05883315 -108.35456922 59.27617806 -104.89312744 59.62818909 C-101.95562744 61.69068909 -101.95562744 61.69068909 -99.89312744 64.62818909 C-99.89312744 66.93818909 -99.89312744 69.24818909 -99.89312744 71.62818909 C-68.21312744 72.12318909 -68.21312744 72.12318909 -35.89312744 72.62818909 C-35.56312744 68.99818909 -35.23312744 65.36818909 -34.89312744 61.62818909 C-34.32116697 58.10367591 -33.71445102 54.6257533 -33.01812744 51.12818909 C-32.85699463 50.24904846 -32.69586182 49.36990784 -32.52984619 48.46412659 C-32.36355713 47.62107971 -32.19726807 46.77803284 -32.02593994 45.90943909 C-31.88043701 45.15727112 -31.73493408 44.40510315 -31.58502197 43.63014221 C-30.77154929 41.27641038 -29.81895796 40.18402653 -27.89312744 38.62818909 C-24.82359646 37.9498397 -21.9770836 38.04925147 -18.89312744 38.62818909 C-16.33062744 40.62818909 -16.33062744 40.62818909 -14.89312744 43.62818909 C-14.89312744 51.62818909 -14.89312744 51.62818909 -18.89312744 72.62818909 C4.20687256 72.62818909 27.30687256 72.62818909 51.10687256 72.62818909 C51.10687256 54.14818909 51.10687256 35.66818909 51.10687256 16.62818909 C46.82202881 16.6861969 42.53718506 16.74420471 38.12249756 16.80397034 C34.7037733 16.83613008 31.28509183 16.86324207 27.86630249 16.88694 C24.25835776 16.91333386 20.65100119 16.94859543 17.043396 17.00538635 C13.56797215 17.05975348 10.09311824 17.08961875 6.61730194 17.1025753 C4.64734582 17.11629725 2.67761873 17.15532394 0.70800781 17.19467163 C-1.09340668 17.19523811 -1.09340668 17.19523811 -2.93121338 17.19581604 C-3.98822449 17.2069191 -5.0452356 17.21802216 -6.13427734 17.22946167 C-8.89312744 16.62818909 -8.89312744 16.62818909 -11.23449707 14.2802124 C-13.27541646 11.01693814 -13.52406726 9.41382798 -12.89312744 5.62818909 C-9.60542526 -0.27288463 -6.16170787 -0.08574019 0 0 Z M67.10687256 16.62818909 C67.10687256 35.10818909 67.10687256 53.58818909 67.10687256 72.62818909 C92.84687256 72.62818909 118.58687256 72.62818909 145.10687256 72.62818909 C143.20394691 59.30770953 141.23426905 46.06128025 138.91937256 32.81568909 C137.99124756 27.47381409 137.06312256 22.13193909 136.10687256 16.62818909 C113.33687256 16.62818909 90.56687256 16.62818909 67.10687256 16.62818909 Z M153.10687256 16.62818909 C154.94931428 29.94187631 156.98051642 43.2010507 159.29437256 56.44068909 C160.22249756 61.78256409 161.15062256 67.12443909 162.10687256 72.62818909 C183.55687256 72.62818909 205.00687256 72.62818909 227.10687256 72.62818909 C225.35374756 65.71881409 223.60062256 58.80943909 221.79437256 51.69068909 C220.97392456 48.44623962 220.97392456 48.44623962 220.13690186 45.13624573 C219.69356147 43.39521191 219.24997399 41.65424098 218.80609131 39.91334534 C218.58392944 39.03094177 218.36176758 38.14853821 218.13287354 37.23939514 C217.05455329 33.02254932 215.91608673 28.83016111 214.62567139 24.67286682 C214.40639481 23.96516647 214.18711823 23.25746613 213.9611969 22.52832031 C212.9783632 20.34236714 211.95340179 19.14674447 210.10687256 17.62818909 C207.05342671 16.6103738 205.00403464 16.50721668 201.80926514 16.5146637 C200.72837112 16.51473923 199.64747711 16.51481476 198.53382874 16.51489258 C196.7852784 16.52263451 196.7852784 16.52263451 195.00140381 16.53053284 C193.80706223 16.53194778 192.61272064 16.53336273 191.38218689 16.53482056 C187.56122348 16.54042559 183.74031831 16.55297898 179.91937256 16.56568909 C177.33148278 16.57070344 174.74359208 16.57526646 172.15570068 16.57936096 C165.80607138 16.59039666 159.45647613 16.60713973 153.10687256 16.62818909 Z M-104.89312744 88.62818909 C-108.70650506 102.26099685 -108.70650506 102.26099685 -112.35015869 115.93678284 C-112.54284836 116.68106033 -112.73553802 117.42533783 -112.93406677 118.19216919 C-113.32877504 119.71952382 -113.72261653 121.24710274 -114.11553955 122.7749176 C-114.71917986 125.11830072 -115.32858651 127.46014247 -115.93804932 129.80201721 C-116.32576631 131.30518291 -116.71314966 132.80843471 -117.10015869 134.31178284 C-117.28133743 135.00541428 -117.46251617 135.69904572 -117.64918518 136.41369629 C-118.37169021 139.24297357 -118.89312744 141.69368534 -118.89312744 144.62818909 C-95.46312744 144.62818909 -72.03312744 144.62818909 -47.89312744 144.62818909 C-46.40812744 135.94506409 -44.92312744 127.26193909 -43.39312744 118.31568909 C-42.68833252 114.20619812 -42.68833252 114.20619812 -41.96929932 110.01368713 C-41.59996204 107.84746089 -41.23080875 105.68120326 -40.86187744 103.51490784 C-40.66755127 102.3858905 -40.4732251 101.25687317 -40.27301025 100.09364319 C-39.99892334 98.48011963 -39.99892334 98.48011963 -39.71929932 96.83399963 C-39.47947327 95.43168343 -39.47947327 95.43168343 -39.23480225 94.0010376 C-38.82186567 91.53284701 -38.82186567 91.53284701 -38.89312744 88.62818909 C-60.67312744 88.62818909 -82.45312744 88.62818909 -104.89312744 88.62818909 Z M-21.89312744 88.62818909 C-23.37812744 97.31131409 -24.86312744 105.99443909 -26.39312744 114.94068909 C-27.09792236 119.05018005 -27.09792236 119.05018005 -27.81695557 123.24269104 C-28.18629284 125.40891729 -28.55544613 127.57517491 -28.92437744 129.74147034 C-29.11870361 130.87048767 -29.31302979 131.999505 -29.51324463 133.16273499 C-29.69596924 134.23841736 -29.87869385 135.31409973 -30.06695557 136.42237854 C-30.30678162 137.82469475 -30.30678162 137.82469475 -30.55145264 139.25534058 C-30.96438922 141.72353116 -30.96438922 141.72353116 -30.89312744 144.62818909 C-3.83312744 144.62818909 23.22687256 144.62818909 51.10687256 144.62818909 C51.10687256 126.14818909 51.10687256 107.66818909 51.10687256 88.62818909 C27.01687256 88.62818909 2.92687256 88.62818909 -21.89312744 88.62818909 Z M67.10687256 88.62818909 C67.10687256 107.10818909 67.10687256 125.58818909 67.10687256 144.62818909 C96.80687256 144.62818909 126.50687256 144.62818909 157.10687256 144.62818909 C154.43313194 125.91200477 151.30133645 107.26256176 148.10687256 88.62818909 C121.37687256 88.62818909 94.64687256 88.62818909 67.10687256 88.62818909 Z M165.10687256 88.62818909 C167.00979821 101.94866865 168.97947607 115.19509793 171.29437256 128.44068909 C172.22249756 133.78256409 173.15062256 139.12443909 174.10687256 144.62818909 C197.53687256 144.62818909 220.96687256 144.62818909 245.10687256 144.62818909 C243.78785166 137.37357416 242.38167409 130.33091265 240.54046631 123.21803284 C240.30151138 122.28391068 240.06255646 121.34978851 239.81636047 120.38735962 C239.31647654 118.43664863 238.81474634 116.48640987 238.31121826 114.53663635 C237.53850495 111.54295655 236.77246794 108.54762408 236.00726318 105.55201721 C235.5187193 103.64892267 235.02980077 101.74592426 234.54046631 99.84303284 C234.31129013 98.9472905 234.08211395 98.05154816 233.84599304 97.12866211 C233.63229568 96.30342545 233.41859833 95.47818878 233.19842529 94.62794495 C233.0112645 93.90167404 232.8241037 93.17540314 232.63127136 92.42712402 C232.14224147 90.54973367 232.14224147 90.54973367 231.10687256 88.62818909 C209.32687256 88.62818909 187.54687256 88.62818909 165.10687256 88.62818909 Z M-123.89312744 160.62818909 C-126.20312744 169.49693909 -128.51312744 178.36568909 -130.89312744 187.50318909 C-131.9894751 191.70464661 -131.9894751 191.70464661 -133.10797119 195.99098206 C-133.68238261 198.20073016 -134.25661386 200.41052511 -134.83062744 202.62037659 C-135.1329126 203.77610168 -135.43519775 204.93182678 -135.74664307 206.12257385 C-136.17300049 207.76673279 -136.17300049 207.76673279 -136.60797119 209.44410706 C-136.98103394 210.87640152 -136.98103394 210.87640152 -137.3616333 212.33763123 C-137.96847139 214.56099362 -137.96847139 214.56099362 -137.89312744 216.62818909 C-112.15312744 216.62818909 -86.41312744 216.62818909 -59.89312744 216.62818909 C-58.40812744 207.94506409 -56.92312744 199.26193909 -55.39312744 190.31568909 C-54.68833252 186.20619812 -54.68833252 186.20619812 -53.96929932 182.01368713 C-53.59996204 179.84746089 -53.23080875 177.68120326 -52.86187744 175.51490784 C-52.66755127 174.3858905 -52.4732251 173.25687317 -52.27301025 172.09364319 C-51.99892334 170.48011963 -51.99892334 170.48011963 -51.71929932 168.83399963 C-51.47947327 167.43168343 -51.47947327 167.43168343 -51.23480225 166.0010376 C-50.82186567 163.53284701 -50.82186567 163.53284701 -50.89312744 160.62818909 C-74.98312744 160.62818909 -99.07312744 160.62818909 -123.89312744 160.62818909 Z M-33.89312744 160.62818909 C-35.37812744 169.31131409 -36.86312744 177.99443909 -38.39312744 186.94068909 C-39.09792236 191.05018005 -39.09792236 191.05018005 -39.81695557 195.24269104 C-40.18629284 197.40891729 -40.55544613 199.57517491 -40.92437744 201.74147034 C-41.11870361 202.87048767 -41.31302979 203.999505 -41.51324463 205.16273499 C-41.69596924 206.23841736 -41.87869385 207.31409973 -42.06695557 208.42237854 C-42.30678162 209.82469475 -42.30678162 209.82469475 -42.55145264 211.25534058 C-42.96438922 213.72353116 -42.96438922 213.72353116 -42.89312744 216.62818909 C-11.87312744 216.62818909 19.14687256 216.62818909 51.10687256 216.62818909 C51.10687256 198.14818909 51.10687256 179.66818909 51.10687256 160.62818909 C23.05687256 160.62818909 -4.99312744 160.62818909 -33.89312744 160.62818909 Z M67.10687256 160.62818909 C67.10687256 179.10818909 67.10687256 197.58818909 67.10687256 216.62818909 C100.76687256 216.62818909 134.42687256 216.62818909 169.10687256 216.62818909 C166.43313194 197.91200477 163.30133645 179.26256176 160.10687256 160.62818909 C129.41687256 160.62818909 98.72687256 160.62818909 67.10687256 160.62818909 Z M177.10687256 160.62818909 C179.78061318 179.34437341 182.91240867 197.99381641 186.10687256 216.62818909 C211.84687256 216.62818909 237.58687256 216.62818909 264.10687256 216.62818909 C261.01917657 202.53435982 261.01917657 202.53435982 257.52874756 188.55787659 C257.33619385 187.82899231 257.14364014 187.10010803 256.94525146 186.34913635 C256.25300388 183.73279127 255.55463671 181.11806834 254.85687256 178.50318909 C253.28937256 172.60443909 251.72187256 166.70568909 250.10687256 160.62818909 C226.01687256 160.62818909 201.92687256 160.62818909 177.10687256 160.62818909 Z M-140.89312744 232.62818909 C-140.89312744 237.90818909 -140.89312744 243.18818909 -140.89312744 248.62818909 C-6.25312744 248.62818909 128.38687256 248.62818909 267.10687256 248.62818909 C267.10687256 243.34818909 267.10687256 238.06818909 267.10687256 232.62818909 C132.46687256 232.62818909 -2.17312744 232.62818909 -140.89312744 232.62818909 Z M35.10687256 264.62818909 C35.10687256 272.54818909 35.10687256 280.46818909 35.10687256 288.62818909 C50.94687256 288.62818909 66.78687256 288.62818909 83.10687256 288.62818909 C83.10687256 280.70818909 83.10687256 272.78818909 83.10687256 264.62818909 C67.26687256 264.62818909 51.42687256 264.62818909 35.10687256 264.62818909 Z M-16.89312744 304.62818909 C-16.89312744 309.90818909 -16.89312744 315.18818909 -16.89312744 320.62818909 C33.26687256 320.62818909 83.42687256 320.62818909 135.10687256 320.62818909 C135.10687256 315.34818909 135.10687256 310.06818909 135.10687256 304.62818909 C84.94687256 304.62818909 34.78687256 304.62818909 -16.89312744 304.62818909 Z " fill="#000000" transform="translate(212.89312744140625,159.37181091308594)"/>
<path d="M0 0 C8.64822802 6.87119486 15.44311132 18.01837448 17 29 C18.40895106 46.55709566 15.56638733 59.95954698 4.4140625 73.99609375 C-3.81286908 83.00558711 -15.56118495 88.6401856 -27.6484375 89.3125 C-43.52674834 89.85457605 -56.42383528 86.71521616 -68.4765625 75.74609375 C-79.27392781 64.49733356 -83.42892811 51.9144671 -83.36352539 36.63110352 C-83.08805401 23.24074561 -77.83736867 12.13333179 -68.8125 2.25 C-49.23031621 -16.01499654 -20.82894813 -15.51443046 0 0 Z M-60.25 19.3125 C-65.78939347 27.81942568 -67.12413195 35.91757944 -66 46 C-63.87222274 55.14062892 -57.83655149 62.89712926 -50 68 C-41.58924398 72.64041712 -32.46913566 73.64588894 -23.12890625 71.26953125 C-20.62764164 70.33679178 -18.34197002 69.27820267 -16 68 C-15.35417969 67.649375 -14.70835937 67.29875 -14.04296875 66.9375 C-7.50482831 62.83513737 -2.89294724 55.61634172 -0.47265625 48.35546875 C1.35752564 39.23481025 0.79217444 30.07103063 -4 22 C-9.77140924 14.12243668 -16.43556104 8.48954852 -26 6 C-41.02071951 4.27941357 -50.04321772 8.82219599 -60.25 19.3125 Z " fill="#000000" transform="translate(145,73)"/>
<path d="M0 0 C5.34894334 1.08792068 7.91631078 3.95192173 11.6875 7.75 C12.56535156 8.59175781 13.44320312 9.43351563 14.34765625 10.30078125 C22.34949291 18.07234923 22.34949291 18.07234923 23.6875 21.75 C23.51082188 25.1068842 23.30899255 27.71417908 21.5625 30.625 C18.55188501 32.43136899 16.18307632 32.69075294 12.6875 32.75 C7.47903998 29.8376639 3.52999997 25.86301259 -0.625 21.625 C-1.25728516 20.99207031 -1.88957031 20.35914063 -2.54101562 19.70703125 C-8.168083 14.02568348 -8.168083 14.02568348 -8.6875 9.4375 C-8.3125 5.75 -8.3125 5.75 -6.25 2.8125 C-3.3125 0.75 -3.3125 0.75 0 0 Z " fill="#000000" transform="translate(159.3125,150.25)"/>
<path d="M0 0 C3.57632467 2.51103647 4.78325846 4.04272488 5.75 8.3125 C4.66207932 13.66144334 1.79807827 16.22881078 -2 20 C-2.84175781 20.87785156 -3.68351562 21.75570312 -4.55078125 22.66015625 C-12.32234923 30.66199291 -12.32234923 30.66199291 -16 32 C-19.3568842 31.82332188 -21.96417908 31.62149255 -24.875 29.875 C-26.68136899 26.86438501 -26.94075294 24.49557632 -27 21 C-24.0876639 15.79153998 -20.11301259 11.84249997 -15.875 7.6875 C-14.92560547 6.73907227 -14.92560547 6.73907227 -13.95703125 5.77148438 C-9.25538755 1.11476084 -6.99989367 -0.71185359 0 0 Z " fill="#000000" transform="translate(68,151)"/>
<path d="M0 0 C2.85695513 1.71417308 3.01592889 3.05628208 3.9375 6.3125 C4.0375782 12.2171136 0.54035455 15.54851484 -3.3828125 19.61328125 C-4.62503569 20.85156504 -5.87253924 22.08457198 -7.125 23.3125 C-7.75792969 23.94478516 -8.39085937 24.57707031 -9.04296875 25.22851562 C-14.72431652 30.855583 -14.72431652 30.855583 -19.3125 31.375 C-23 31 -23 31 -25.9375 28.9375 C-28 26 -28 26 -28.75 22.6875 C-27.66207932 17.33855666 -24.79807827 14.77118922 -21 11 C-20.15824219 10.12214844 -19.31648437 9.24429688 -18.44921875 8.33984375 C-8.41712101 -1.98950133 -8.41712101 -1.98950133 0 0 Z " fill="#000000" transform="translate(179,42)"/>
<path d="M0 0 C2.93088846 2.0610764 5.44119371 4.49945025 8 7 C8.89074219 7.86367188 9.78148438 8.72734375 10.69921875 9.6171875 C18.84554948 17.63568708 18.84554948 17.63568708 19.375 22.3125 C19 26 19 26 16.9375 28.9375 C14 31 14 31 10.6875 31.75 C5.33855666 30.66207932 2.77118922 27.79807827 -1 24 C-1.87785156 23.15824219 -2.75570312 22.31648438 -3.66015625 21.44921875 C-11.66199291 13.67765077 -11.66199291 13.67765077 -13 10 C-12.68041237 3.92783505 -12.68041237 3.92783505 -10.625 1.125 C-6.91303031 -1.44482517 -4.17576204 -1.26060741 0 0 Z " fill="#000000" transform="translate(54,42)"/>
<path d="M0 0 C0.66 -0.0103125 1.32 -0.020625 2 -0.03125 C4.95667233 0.75411609 6.09594033 2.12625929 8 4.5 C8.51757812 7.55273438 8.51757812 7.55273438 8.53125 11.09375 C8.53640625 12.37121094 8.5415625 13.64867187 8.546875 14.96484375 C8.53849609 15.62726074 8.53011719 16.28967773 8.52148438 16.97216797 C8.5000595 18.99438448 8.52129739 21.01304961 8.546875 23.03515625 C8.54171875 24.31261719 8.5365625 25.59007812 8.53125 26.90625 C8.52673828 28.07478516 8.52222656 29.24332031 8.51757812 30.44726562 C7.8998072 34.0909485 6.88375724 35.26515545 4 37.5 C2 38.03125 2 38.03125 0 38 C-0.99 38.01546875 -0.99 38.01546875 -2 38.03125 C-4.95667233 37.24588391 -6.09594033 35.87374071 -8 33.5 C-8.51757812 30.44726562 -8.51757812 30.44726562 -8.53125 26.90625 C-8.53640625 25.62878906 -8.5415625 24.35132813 -8.546875 23.03515625 C-8.53849609 22.37273926 -8.53011719 21.71032227 -8.52148438 21.02783203 C-8.5000595 19.00561552 -8.52129739 16.98695039 -8.546875 14.96484375 C-8.54171875 13.68738281 -8.5365625 12.40992188 -8.53125 11.09375 C-8.52673828 9.92521484 -8.52222656 8.75667969 -8.51757812 7.55273438 C-7.69727207 2.71447642 -5.00000967 -0.07812515 0 0 Z " fill="#000000" transform="translate(112,170.5)"/>
<path d="M0 0 C1.91619141 -0.00773437 1.91619141 -0.00773437 3.87109375 -0.015625 C4.53351074 -0.00724609 5.19592773 0.00113281 5.87841797 0.00976562 C7.90063448 0.0311905 9.91929961 0.00995261 11.94140625 -0.015625 C13.21886719 -0.01046875 14.49632812 -0.0053125 15.8125 0 C16.98103516 0.00451172 18.14957031 0.00902344 19.35351562 0.01367188 C22.9971985 0.6314428 24.17140545 1.64749276 26.40625 4.53125 C26.9375 6.53125 26.9375 6.53125 26.90625 8.53125 C26.9165625 9.19125 26.926875 9.85125 26.9375 10.53125 C26.15213391 13.48792233 24.77999071 14.62719033 22.40625 16.53125 C19.35351562 17.04882812 19.35351562 17.04882812 15.8125 17.0625 C14.53503906 17.06765625 13.25757813 17.0728125 11.94140625 17.078125 C10.94778076 17.06555664 10.94778076 17.06555664 9.93408203 17.05273438 C7.91186552 17.0313095 5.89320039 17.05254739 3.87109375 17.078125 C2.59363281 17.07296875 1.31617188 17.0678125 0 17.0625 C-1.16853516 17.05798828 -2.33707031 17.05347656 -3.54101562 17.04882812 C-7.1846985 16.4310572 -8.35890545 15.41500724 -10.59375 12.53125 C-11.125 10.53125 -11.125 10.53125 -11.09375 8.53125 C-11.10921875 7.54125 -11.10921875 7.54125 -11.125 6.53125 C-9.58941986 0.75024241 -5.35117066 0.02066089 0 0 Z " fill="#000000" transform="translate(181.59375,103.46875)"/>
<path d="M0 0 C1.91619141 -0.00773437 1.91619141 -0.00773437 3.87109375 -0.015625 C4.53351074 -0.00724609 5.19592773 0.00113281 5.87841797 0.00976562 C7.90063448 0.0311905 9.91929961 0.00995261 11.94140625 -0.015625 C13.21886719 -0.01046875 14.49632813 -0.0053125 15.8125 0 C16.98103516 0.00451172 18.14957031 0.00902344 19.35351562 0.01367188 C22.9971985 0.6314428 24.17140545 1.64749276 26.40625 4.53125 C26.9375 6.53125 26.9375 6.53125 26.90625 8.53125 C26.9165625 9.19125 26.926875 9.85125 26.9375 10.53125 C26.15213391 13.48792233 24.77999071 14.62719033 22.40625 16.53125 C19.35351563 17.04882812 19.35351563 17.04882812 15.8125 17.0625 C14.53503906 17.06765625 13.25757812 17.0728125 11.94140625 17.078125 C10.94778076 17.06555664 10.94778076 17.06555664 9.93408203 17.05273438 C7.91186552 17.0313095 5.89320039 17.05254739 3.87109375 17.078125 C2.59363281 17.07296875 1.31617188 17.0678125 0 17.0625 C-1.16853516 17.05798828 -2.33707031 17.05347656 -3.54101562 17.04882812 C-7.1846985 16.4310572 -8.35890545 15.41500724 -10.59375 12.53125 C-11.125 10.53125 -11.125 10.53125 -11.09375 8.53125 C-11.10921875 7.54125 -11.10921875 7.54125 -11.125 6.53125 C-9.58941986 0.75024241 -5.35117066 0.02066089 0 0 Z " fill="#000000" transform="translate(26.59375,103.46875)"/>
<path d="M0 0 C0.66 -0.0103125 1.32 -0.020625 2 -0.03125 C4.95667233 0.75411609 6.09594033 2.12625929 8 4.5 C8.51757812 7.55273437 8.51757812 7.55273437 8.53125 11.09375 C8.53640625 12.37121094 8.5415625 13.64867187 8.546875 14.96484375 C8.53849609 15.62726074 8.53011719 16.28967773 8.52148438 16.97216797 C8.5000595 18.99438448 8.52129739 21.01304961 8.546875 23.03515625 C8.54171875 24.31261719 8.5365625 25.59007813 8.53125 26.90625 C8.52673828 28.07478516 8.52222656 29.24332031 8.51757812 30.44726562 C7.8998072 34.0909485 6.88375724 35.26515545 4 37.5 C2 38.03125 2 38.03125 0 38 C-0.99 38.01546875 -0.99 38.01546875 -2 38.03125 C-4.95667233 37.24588391 -6.09594033 35.87374071 -8 33.5 C-8.51757812 30.44726562 -8.51757812 30.44726562 -8.53125 26.90625 C-8.53640625 25.62878906 -8.5415625 24.35132812 -8.546875 23.03515625 C-8.53849609 22.37273926 -8.53011719 21.71032227 -8.52148438 21.02783203 C-8.5000595 19.00561552 -8.52129739 16.98695039 -8.546875 14.96484375 C-8.54171875 13.68738281 -8.5365625 12.40992188 -8.53125 11.09375 C-8.52673828 9.92521484 -8.52222656 8.75667969 -8.51757812 7.55273438 C-7.69727207 2.71447642 -5.00000967 -0.07812515 0 0 Z " fill="#000000" transform="translate(112,15.5)"/>
</g>
</svg>

