<svg xmlns="http://www.w3.org/2000/svg" width="512pt" height="512pt" viewBox="0 0 512 512" preserveAspectRatio="xMidYMid meet">
  <g transform="translate(0,512) scale(0.1,-0.1)" fill="currentColor" stroke="none">
    <path d="M1344 5110 c-60 -24 -179 -204 -225 -341 -41 -123 -48 -223 -49 -670
l0 -386 -371 -214 c-204 -118 -397 -235 -429 -262 -111 -89 -212 -240 -256
-379 -33 -106 1 -150 132 -173 103 -19 172 -18 279 0 124 22 200 55 440 193
l210 121 5 -473 c5 -499 4 -486 50 -523 8 -7 34 -13 56 -13 32 0 48 6 68 26
l26 27 0 538 0 537 52 31 53 30 47 -26 48 -26 0 -1464 0 -1463 -100 0 -100 0
0 514 0 513 -26 27 c-58 57 -154 22 -168 -62 -3 -20 -6 -252 -6 -514 l0 -478
-500 0 c-414 0 -506 -2 -529 -14 -66 -35 -66 -137 0 -172 42 -21 4976 -21
5018 0 67 35 65 143 -4 174 -19 9 -204 12 -725 12 l-700 0 0 140 0 139 618 3
619 3 49 30 c65 41 106 108 112 183 4 50 -21 148 -192 782 -144 529 -204 737
-224 770 -16 26 -47 57 -76 75 l-49 30 -1231 0 -1231 0 -48 -28 c-85 -50 -94
-70 -196 -448 -51 -189 -97 -351 -102 -359 -5 -9 -9 307 -9 733 0 430 4 747 9
747 5 0 91 -48 192 -106 322 -187 406 -218 599 -218 200 -1 290 36 290 118 0
87 -90 261 -193 371 -81 87 -133 121 -547 360 l-335 193 -6 478 c-6 517 -6
518 -64 651 -35 78 -107 183 -160 232 -45 42 -75 50 -121 31z m91 -334 c52
-112 55 -145 55 -539 l0 -362 -110 0 -110 0 0 305 c0 330 9 444 40 535 26 76
68 147 82 139 6 -4 25 -39 43 -78z m14 -1114 c107 -54 104 -200 -4 -252 -52
-25 -68 -25 -122 1 -79 38 -106 139 -56 208 24 33 79 61 118 61 17 0 45 -8 64
-18z m-328 -344 c25 -32 29 -42 18 -49 -126 -80 -607 -347 -658 -365 -70 -24
-241 -44 -241 -28 0 24 65 117 118 170 45 44 110 88 259 174 109 63 250 144
313 181 l114 67 22 -56 c13 -30 37 -73 55 -94z m889 -13 c151 -87 303 -177
336 -201 62 -44 122 -108 162 -175 36 -59 32 -63 -55 -56 -92 7 -166 28 -247
68 -46 23 -571 324 -584 334 -2 2 13 24 32 49 20 26 43 69 53 96 9 27 20 47
23 46 3 -2 129 -74 280 -161z m500 -1162 c0 -10 -10 -91 -22 -180 l-22 -163
-243 0 c-134 0 -243 3 -243 8 1 30 92 337 102 344 7 4 106 8 221 8 191 0 207
-1 207 -17z m650 -163 l0 -180 -245 0 c-135 0 -245 3 -245 8 0 14 42 327 46
340 2 9 56 12 224 12 l220 0 0 -180z m653 148 c4 -18 13 -89 22 -158 9 -69 18
-135 21 -147 l4 -23 -250 0 -250 0 0 180 0 180 224 0 224 0 5 -32z m636 18 c9
-10 101 -324 101 -343 0 -2 -110 -3 -245 -3 -135 0 -245 1 -245 3 0 8 -40 295
-45 325 l-6 32 214 0 c173 0 217 -3 226 -14z m-2014 -578 c-5 -30 -45 -319
-45 -325 0 -2 -126 -3 -280 -3 -204 0 -280 3 -280 11 0 7 20 86 45 176 25 90
45 165 45 168 0 3 117 5 260 5 l261 0 -6 -32z m725 -148 l0 -180 -285 0 -284
0 4 28 c6 30 45 319 45 327 0 3 117 5 260 5 l260 0 0 -180z m748 13 c12 -93
22 -174 22 -180 0 -10 -64 -13 -285 -13 l-285 0 0 180 0 180 263 0 263 0 22
-167z m740 10 c23 -87 45 -168 49 -181 l5 -22 -283 2 -284 3 -22 160 c-12 88
-22 168 -23 178 0 16 19 17 258 17 l257 0 43 -157z m-2288 -420 c-1 -10 -11
-90 -23 -178 l-22 -160 -290 -3 c-160 -1 -300 0 -312 3 -17 4 -23 13 -23 33 0
21 46 204 76 305 5 16 28 17 300 17 273 0 294 -1 294 -17z m800 -163 l0 -180
-320 0 c-249 0 -320 3 -320 13 0 6 10 87 22 180 l22 167 298 0 298 0 0 -180z
m805 148 c5 -30 45 -317 45 -325 0 -2 -146 -3 -325 -3 l-325 0 0 180 0 180
300 0 299 0 6 -32z m814 -45 c61 -224 66 -250 52 -267 -12 -14 -51 -16 -317
-16 -198 0 -304 4 -304 10 0 10 -36 280 -44 328 l-3 22 297 0 298 0 21 -77z
m-1899 -623 l0 -140 -600 0 -600 0 0 140 0 140 600 0 600 0 0 -140z m560 0 l0
-140 -180 0 -180 0 0 140 0 140 180 0 180 0 0 -140z"/>
<path d="M3831 5106 c-44 -24 -50 -50 -51 -213 l0 -153 29 -32 c24 -27 36 -33
71 -33 35 0 47 6 71 33 l29 32 0 150 c0 94 -4 159 -12 175 -22 48 -88 68 -137
41z"/>
<path d="M3032 4775 c-39 -17 -66 -71 -56 -112 8 -29 147 -180 208 -225 53
-38 89 -37 132 6 37 37 43 70 20 114 -20 39 -197 209 -230 222 -34 12 -34 12
-74 -5z"/>
<path d="M4645 4774 c-38 -19 -201 -180 -221 -216 -23 -44 -17 -77 20 -114 37
-37 70 -43 114 -20 47 24 218 209 225 241 8 46 -16 93 -57 110 -44 18 -44 18
-81 -1z"/>
<path d="M3742 4456 c-212 -52 -398 -243 -441 -454 -40 -194 22 -397 163 -538
114 -114 259 -174 419 -174 223 1 430 131 525 330 46 98 62 163 62 260 0 97
-16 162 -62 260 -73 153 -226 276 -389 315 -77 18 -204 18 -277 1z m259 -206
c299 -94 364 -498 111 -685 -211 -156 -523 -55 -602 194 -97 306 185 588 491
491z"/>
<path d="M2691 3966 c-47 -26 -63 -84 -37 -135 23 -44 53 -51 216 -51 l150 0
32 29 c27 24 33 36 33 71 0 35 -6 47 -33 71 l-32 29 -153 0 c-107 -1 -159 -5
-176 -14z"/>
<path d="M4708 3951 c-27 -24 -33 -36 -33 -71 0 -35 6 -47 33 -71 l32 -29 150
0 c163 0 193 7 216 51 27 52 8 115 -41 137 -16 8 -81 12 -175 12 l-150 0 -32
-29z"/>
<path d="M3195 3331 c-48 -29 -211 -204 -219 -234 -16 -66 55 -137 121 -121
31 8 218 184 239 226 23 44 17 77 -20 114 -39 39 -75 44 -121 15z"/>
<path d="M4444 3316 c-37 -37 -43 -70 -20 -114 21 -42 208 -218 239 -226 66
-16 137 55 121 121 -8 31 -184 218 -226 239 -44 23 -77 17 -114 -20z"/>
<path d="M3844 3081 c-12 -5 -31 -22 -43 -37 -19 -25 -21 -39 -21 -175 0 -162
7 -192 51 -215 52 -27 115 -8 137 41 8 16 12 81 12 175 0 149 0 150 -27 180
-30 32 -75 45 -109 31z"/>
<path d="M1116 1704 c-20 -21 -26 -37 -26 -69 0 -59 36 -95 95 -95 59 0 95 36
95 95 0 59 -36 95 -95 95 -32 0 -48 -6 -69 -26z"/>
  </g>
</svg>