<svg xmlns="http://www.w3.org/2000/svg" width="512pt" height="512pt" viewBox="0 0 512 512" preserveAspectRatio="xMidYMid meet">

<g transform="translate(0.000000,512.000000) scale(0.100000,-0.100000)"
fill="currentColor" stroke="none">
<path d="M2462 5089 c-25 -12 -55 -39 -70 -62 l-27 -41 0 -221 c0 -218 0 -222
24 -257 43 -62 85 -83 166 -83 81 0 123 21 166 83 23 34 24 42 27 244 3 198 2
212 -19 254 -30 64 -84 97 -163 102 -48 2 -70 -2 -104 -19z"/>
<path d="M3700 4801 c-52 -11 -96 -37 -123 -73 -29 -39 -1187 -2030 -1206
-2073 -28 -63 -42 -123 -48 -201 -17 -234 121 -472 335 -574 96 -46 169 -60
320 -60 72 0 132 -3 132 -7 0 -5 -116 -327 -257 -718 l-257 -710 0 -90 c-1
-81 2 -95 26 -137 61 -103 161 -152 298 -146 72 2 96 8 150 35 36 18 81 49
101 70 62 65 1103 1425 1127 1473 48 91 7 209 -88 258 -57 30 -139 27 -192 -6
-24 -15 -171 -198 -444 -552 -224 -292 -409 -529 -410 -527 -2 2 93 271 211
599 117 328 217 612 220 631 17 88 -55 192 -148 215 -29 8 -144 12 -309 12
-234 0 -267 2 -303 19 -48 22 -79 54 -100 103 -23 55 -19 106 14 173 16 33
270 472 563 975 l535 915 357 3 c335 2 358 1 352 -15 -4 -9 -185 -313 -403
-675 -217 -362 -399 -675 -404 -696 -15 -67 6 -135 58 -184 60 -57 68 -58 488
-58 372 0 386 -1 405 -20 11 -11 20 -29 20 -39 0 -11 -29 -56 -65 -101 -58
-73 -85 -127 -85 -170 0 -38 24 -95 56 -130 67 -74 174 -89 255 -36 44 29 156
167 188 232 133 266 -17 580 -310 649 -46 10 -121 15 -261 15 -109 0 -198 2
-198 4 0 2 178 300 396 662 218 362 403 676 410 698 34 94 -6 189 -100 239
-41 22 -42 22 -656 24 -338 0 -631 -2 -650 -6z"/>
<path d="M1317 4790 c-85 -26 -142 -114 -135 -206 4 -46 17 -75 88 -191 45
-76 95 -151 109 -166 61 -67 157 -85 239 -46 76 37 124 139 102 219 -15 54
-164 298 -209 342 -54 51 -125 69 -194 48z"/>
<path d="M2249 4085 c-735 -156 -1250 -786 -1249 -1527 1 -351 120 -695 335
-963 173 -217 392 -380 644 -480 112 -44 307 -95 365 -95 85 1 178 71 192 145
12 63 -1 131 -31 170 -39 52 -73 69 -173 90 -445 92 -780 410 -900 853 -23 87
-26 116 -26 277 -1 154 3 193 22 268 100 398 390 712 770 836 48 16 132 36
187 46 107 18 138 30 171 67 43 46 56 87 52 154 -3 52 -9 70 -35 101 -67 84
-141 97 -324 58z"/>
<path d="M490 3978 c-84 -24 -140 -99 -140 -188 0 -105 34 -143 233 -255 106
-60 150 -79 188 -83 175 -17 283 192 168 323 -31 35 -267 176 -337 201 -43 15
-64 16 -112 2z"/>
<path d="M113 2735 c-75 -38 -108 -91 -108 -175 0 -84 33 -137 108 -175 49
-24 58 -25 238 -25 185 0 187 0 240 28 43 22 59 38 81 81 36 68 36 114 0 182
-22 43 -38 59 -81 81 -53 28 -55 28 -240 28 -180 0 -189 -1 -238 -25z"/>
<path d="M685 1702 c-85 -40 -281 -155 -307 -179 -39 -38 -58 -84 -58 -144 0
-123 117 -216 237 -189 61 14 326 164 362 205 76 87 57 228 -40 292 -54 35
-137 42 -194 15z"/>
<path d="M1385 985 c-52 -28 -75 -57 -159 -200 -109 -184 -117 -209 -96 -287
38 -134 222 -186 322 -92 28 27 134 198 189 304 46 90 19 203 -62 257 -52 34
-147 43 -194 18z"/>
</g>
</svg>
